<?xml version="1.0" standalone="no"?>
<!DOCTYPE svg PUBLIC "-//W3C//DTD SVG 20010904//EN"
 "http://www.w3.org/TR/2001/REC-SVG-20010904/DTD/svg10.dtd">
<svg version="1.0" xmlns="http://www.w3.org/2000/svg" width="1024.000000pt" height="1024.000000pt" viewBox="0 0 1024.000000 1024.000000" preserveAspectRatio="xMidYMid meet">
  <g transform="translate(0.000000,1024.000000) scale(0.100000,-0.100000)" fill="#000000" stroke="none">
    <path d="M4949 9639 c-232 -19 -495 -101 -643 -201 -81 -56 -216 -202 -216
-236 0 -15 -2 -15 -10 -2 -14 22 -12 107 5 170 8 30 15 61 15 68 0 26 -38 10
-82 -35 -65 -68 -111 -162 -116 -241 -4 -55 -6 -61 -20 -50 -10 9 -51 13 -126
13 -109 0 -113 -1 -188 -39 -106 -52 -105 -55 21 -76 l75 -13 -65 -31 c-72
-34 -206 -142 -265 -213 -84 -100 -155 -230 -168 -305 -6 -30 -4 -38 9 -38 8
0 15 3 15 8 0 8 61 45 66 40 1 -2 -11 -24 -28 -48 -17 -25 -54 -94 -84 -155
-58 -119 -84 -221 -84 -326 0 -64 23 -129 45 -129 8 0 21 24 31 53 l18 52 12
-135 c18 -207 49 -356 116 -553 l30 -89 -40 -34 c-54 -46 -81 -109 -103 -239
-23 -132 -18 -280 12 -394 45 -170 220 -449 326 -519 43 -29 119 -38 164 -19
l35 14 23 -81 c29 -104 60 -165 163 -317 47 -68 88 -129 92 -136 3 -6 -22 0
-56 15 -55 23 -77 26 -173 27 -101 0 -115 -2 -167 -28 -32 -16 -83 -51 -113
-78 l-54 -50 -38 26 c-62 42 -164 69 -235 61 -146 -17 -264 -106 -336 -254
-35 -72 -53 -97 -81 -114 -117 -69 -242 -159 -295 -212 -70 -69 -134 -171
-177 -278 -34 -87 -36 -121 -10 -188 l20 -51 -22 -9 c-12 -5 -62 -25 -112 -45
-120 -49 -214 -101 -368 -203 -155 -103 -253 -192 -340 -310 -172 -230 -293
-478 -361 -737 -60 -227 -198 -828 -316 -1375 -44 -206 -96 -442 -115 -525
-70 -302 -121 -634 -135 -865 -6 -95 -8 -181 -5 -191 6 -18 20 -19 235 -19
173 0 230 3 233 13 4 10 6 10 6 0 1 -10 88 -13 401 -13 l400 0 0 23 c0 12 -9
41 -19 64 -11 22 -24 66 -31 97 -6 31 -18 69 -26 84 -8 15 -14 33 -14 40 0 6
-5 12 -11 12 -5 0 -7 4 -4 10 3 5 -1 24 -9 42 -8 18 -17 49 -20 69 -4 21 -13
42 -20 48 -8 7 -12 21 -8 33 3 13 1 19 -5 15 -7 -5 -9 0 -6 12 5 21 -14 91
-25 91 -4 0 -7 22 -8 50 -1 27 -6 56 -12 63 -7 8 -9 17 -6 20 4 4 -1 18 -10
32 -10 15 -14 34 -11 45 3 11 2 28 -4 38 -12 22 -22 98 -26 202 -2 41 -4 77
-5 80 -2 3 -3 42 -4 88 -1 58 -5 85 -15 91 -9 6 -10 10 -2 12 9 3 9 16 1 53
-6 26 -10 62 -9 79 1 18 -2 68 -5 112 -4 44 -9 166 -12 270 -2 105 -4 195 -5
200 -1 33 11 236 16 266 9 53 14 103 20 214 5 91 8 130 19 250 18 185 68 393
106 447 11 15 20 31 20 35 0 20 157 174 181 178 25 5 28 1 64 -103 21 -59 51
-140 67 -180 64 -164 135 -462 213 -897 19 -110 49 -263 65 -340 30 -143 71
-419 90 -604 10 -99 12 -251 3 -203 -3 13 -11 26 -19 29 -8 3 -14 9 -14 14 0
9 -12 36 -77 175 -7 17 -23 41 -33 52 -11 12 -20 25 -20 29 0 5 -16 32 -35 62
-19 29 -35 55 -35 57 0 2 -29 53 -65 113 -36 59 -65 113 -65 119 0 7 -4 12 -9
12 -9 0 -24 38 -22 53 1 5 -12 33 -29 63 -64 112 -66 52 -6 -192 54 -215 81
-304 153 -494 30 -80 100 -280 155 -445 55 -165 104 -304 109 -309 5 -6 9
-115 9 -243 l0 -233 355 0 c277 0 355 3 355 13 0 42 -121 327 -138 327 -5 0
-12 19 -16 42 -4 22 -13 53 -22 67 -8 14 -23 55 -33 91 -11 36 -28 96 -40 135
-12 38 -21 80 -21 92 0 13 -4 23 -8 23 -5 0 -9 23 -11 51 -1 28 -6 61 -11 74
-5 13 -12 57 -15 97 -4 40 -9 80 -12 88 -10 27 -13 53 -18 155 -2 55 -12 147
-21 204 -8 56 -17 134 -19 172 -2 39 -6 82 -10 98 -3 15 -10 79 -15 142 -5 63
-16 200 -24 304 -9 105 -18 217 -21 251 -9 115 -32 190 -52 170 -4 -3 -6 -39
-7 -80 0 -41 -4 -72 -8 -70 -4 3 -8 -1 -9 -8 -1 -18 -7 -55 -30 -193 -11 -66
-23 -138 -26 -160 -2 -22 -7 -47 -10 -55 -4 -8 -5 -19 -4 -23 0 -4 -5 -35 -13
-68 -8 -34 -13 -74 -12 -90 1 -16 -2 -29 -6 -29 -5 0 -6 -42 -3 -92 6 -95 -1
-168 -14 -168 -12 0 -32 77 -37 139 -6 77 -55 245 -67 229 -5 -9 -7 -3 -4 15
3 16 -1 41 -9 55 -7 15 -24 92 -39 172 -57 314 -164 786 -207 915 -5 17 -39
113 -74 214 -63 182 -64 185 -45 205 10 12 30 40 45 64 15 23 35 51 46 62 10
10 39 43 63 74 25 30 47 53 49 51 1 -2 28 10 58 26 139 73 199 97 275 109 90
15 228 14 295 -1 25 -6 56 -12 70 -14 57 -9 206 -58 305 -100 17 -7 59 -25 95
-40 36 -15 74 -32 85 -39 11 -7 45 -21 75 -31 30 -10 75 -27 100 -38 25 -11
51 -22 58 -23 7 -1 23 -9 35 -17 12 -8 38 -18 57 -22 19 -4 40 -11 45 -15 6
-4 55 -22 110 -39 55 -18 107 -36 115 -40 8 -5 42 -16 75 -25 67 -20 81 -30
137 -100 45 -56 106 -95 119 -75 5 9 11 9 23 -4 15 -15 16 -44 1 -139 -3 -20
0 -28 11 -28 14 0 14 -2 0 -16 -20 -20 -20 -30 0 -38 8 -3 12 -11 8 -17 -4 -7
-6 -38 -5 -70 1 -35 -3 -59 -9 -59 -5 0 -10 -7 -10 -16 0 -8 5 -12 10 -9 6 4
10 -8 10 -29 0 -22 -5 -35 -12 -34 -7 2 -13 -20 -16 -62 -5 -74 6 -77 14 -4
13 113 16 40 12 -266 l-4 -325 -32 -44 c-44 -61 -41 -130 10 -204 18 -25 19
-39 13 -150 -8 -145 -4 -155 70 -163 42 -5 53 -3 69 15 17 18 18 33 14 140 -5
118 -5 119 23 162 16 23 30 54 30 68 4 59 -3 98 -22 124 -19 26 -20 43 -20
260 1 320 11 829 17 905 l6 64 36 -5 c64 -9 205 -36 252 -48 30 -7 63 -8 98
-3 104 17 61 36 -193 85 -221 42 -199 29 -191 109 l6 68 -35 31 c-39 34 -79
39 -127 18 -29 -13 -102 -77 -116 -103 -8 -15 -14 -15 -68 0 -194 55 -433 142
-484 176 -14 9 -47 25 -74 35 -34 12 -69 38 -109 79 -72 74 -167 199 -167 220
0 9 -4 16 -8 16 -14 0 -36 94 -35 153 0 31 6 78 13 105 13 49 87 177 127 220
12 13 25 33 28 43 4 11 11 19 17 19 6 0 8 3 5 7 -4 3 2 13 13 20 19 13 27 9
108 -64 83 -75 134 -118 268 -224 92 -72 389 -267 699 -458 270 -166 571 -406
601 -477 18 -43 18 -41 -10 -48 -13 -3 -27 -14 -32 -23 -4 -10 -9 -122 -12
-249 l-4 -230 27 -33 c17 -19 28 -43 27 -59 -1 -15 -3 -583 -5 -1262 -3 -679
-8 -1283 -12 -1342 -6 -93 -5 -108 8 -108 25 0 29 151 32 1445 1 677 5 1237 9
1246 4 9 24 19 46 23 21 3 41 12 43 18 3 7 6 -14 6 -47 0 -33 2 -247 5 -475 3
-228 5 -819 6 -1312 0 -753 2 -898 14 -898 22 0 25 189 18 1185 -4 506 -7
1062 -7 1236 l0 317 24 19 c24 20 24 21 28 249 3 257 -2 289 -47 299 -16 4
-34 4 -40 0 -18 -11 -11 13 30 99 36 75 49 92 118 149 100 83 162 126 242 170
559 301 612 333 791 483 244 205 330 297 468 500 83 123 115 201 115 286 1 57
-2 70 -23 92 -14 14 -20 26 -14 26 6 0 9 8 6 19 -3 11 2 21 12 25 14 5 15 9 5
21 -16 19 -4 35 27 35 40 0 104 -43 155 -102 58 -68 138 -194 149 -234 7 -22
29 -44 85 -83 89 -63 190 -155 227 -208 14 -21 35 -65 45 -98 53 -167 44 -188
-168 -364 -155 -129 -318 -235 -610 -398 -237 -133 -407 -206 -590 -256 -161
-43 -146 -45 -153 17 -8 80 -28 111 -78 124 -59 15 -85 -1 -134 -83 -45 -76
-103 -145 -122 -145 -6 0 -16 -6 -20 -14 -5 -9 -48 -20 -113 -31 -104 -16
-170 -43 -170 -70 0 -7 -3 -20 -6 -29 -7 -17 23 -15 136 9 144 32 260 47 273
36 9 -7 14 -43 15 -108 2 -54 5 -120 7 -148 3 -27 9 -120 15 -205 13 -184 20
-262 27 -273 2 -4 6 -99 8 -212 2 -112 6 -209 10 -215 3 -6 11 -7 18 -3 6 3
-5 -13 -24 -36 -29 -37 -34 -50 -33 -92 2 -48 31 -112 57 -123 9 -3 8 -8 -3
-18 -10 -8 -14 -26 -12 -52 2 -25 0 -36 -7 -31 -6 3 -11 -1 -11 -10 0 -9 5
-13 10 -10 7 4 10 -15 9 -56 -2 -50 1 -65 16 -75 27 -20 80 -27 104 -14 32 17
41 50 41 150 0 78 3 94 25 126 44 65 43 126 -5 187 -16 20 -18 71 -24 592 -3
314 -8 608 -11 655 -5 61 -3 80 4 69 9 -13 18 -15 43 -9 63 16 113 32 123 40
6 4 28 13 50 20 22 7 45 16 50 20 6 4 57 27 115 51 58 24 137 61 175 82 39 22
138 76 220 122 319 176 552 337 696 479 l76 75 74 -23 c339 -106 643 -301 808
-520 114 -150 226 -349 281 -501 71 -193 182 -648 290 -1195 33 -162 86 -414
120 -560 81 -355 166 -750 179 -830 33 -201 41 -269 51 -400 16 -212 19 -230
36 -230 18 0 18 49 -1 224 -35 318 -86 595 -179 986 -53 222 -139 623 -221
1030 -55 272 -72 347 -136 605 -93 376 -161 544 -309 770 -105 160 -194 260
-315 354 -124 97 -362 220 -537 277 l-117 39 6 55 c9 94 -33 217 -106 306 -31
38 -122 114 -207 172 -44 31 -65 54 -78 85 -30 69 -145 235 -193 277 -82 72
-211 104 -323 80 l-60 -13 -76 73 c-107 101 -160 124 -289 124 -78 0 -113 -5
-159 -22 -33 -12 -61 -20 -64 -18 -2 3 14 27 35 54 98 128 161 248 202 390
l22 72 50 0 c65 0 105 18 156 71 133 140 258 380 289 553 25 146 11 358 -31
459 -20 49 -70 103 -101 111 -19 5 -24 11 -19 24 63 150 116 391 139 627 12
119 12 120 25 80 18 -54 28 -63 45 -39 56 75 41 391 -29 593 -31 92 -31 101 0
67 38 -41 49 -34 42 27 -12 124 -156 349 -287 450 -40 31 -26 35 40 12 47 -17
70 -19 70 -7 0 22 -193 199 -279 256 -153 101 -212 125 -370 151 -53 8 -70 14
-56 19 104 37 103 44 -10 69 -255 58 -531 100 -672 101 -86 1 -109 4 -101 13
5 7 18 15 29 18 30 10 22 33 -14 40 -32 6 -223 -10 -253 -22 -8 -3 -14 -2 -14
1 0 4 12 11 26 16 14 6 23 14 20 19 -9 14 -46 17 -137 10z m-334 -965 c63 -15
174 -50 216 -68 10 -4 23 -1 32 9 18 17 42 10 67 -19 16 -20 40 -21 40 -1 0 8
4 15 9 15 5 0 14 -7 21 -15 18 -22 72 -19 98 5 27 26 28 17 2 -20 -14 -20 -17
-31 -9 -35 12 -8 11 -9 157 64 116 57 133 61 124 29 -4 -18 -2 -20 19 -14 13
4 78 14 144 23 274 36 490 -31 665 -206 67 -68 95 -105 132 -176 49 -97 88
-227 69 -233 -13 -4 -8 -43 19 -177 29 -141 49 -299 54 -433 4 -113 3 -123
-12 -117 -182 73 -353 125 -485 146 -221 35 -514 -35 -641 -151 l-46 -42 -65
16 c-85 21 -196 20 -263 -3 l-53 -18 -23 28 c-57 67 -213 133 -378 159 -120
19 -320 8 -445 -24 -109 -28 -281 -103 -357 -155 l-46 -32 0 115 c0 183 39
414 116 686 7 25 7 25 -14 6 -12 -11 -24 -17 -27 -14 -9 9 33 155 59 205 33
63 54 94 97 140 83 88 188 167 294 221 62 31 235 88 290 95 59 8 71 7 140 -9z
m1350 -1318 c85 -9 266 -72 307 -106 47 -39 58 -77 58 -210 0 -282 -106 -426
-359 -489 -100 -25 -153 -26 -239 -6 -86 20 -137 48 -197 109 -101 101 -154
240 -158 412 -2 85 0 93 28 140 35 55 76 82 177 115 117 37 248 49 383 35z
m-1437 -11 c97 -20 194 -60 230 -96 49 -48 62 -87 62 -183 0 -169 -45 -303
-131 -394 -95 -99 -172 -132 -309 -132 -189 0 -334 72 -410 205 -56 97 -72
159 -77 295 -5 145 5 176 72 222 114 79 391 120 563 83z m687 -228 c39 -22 40
-24 47 -94 29 -288 126 -439 338 -526 187 -78 371 -73 545 13 110 54 175 113
210 191 29 66 68 224 80 324 l7 60 25 -30 c24 -30 24 -32 18 -163 -6 -143 -18
-255 -35 -341 -5 -29 -10 -73 -10 -97 0 -23 -4 -53 -9 -66 -5 -13 -23 -115
-41 -228 -55 -346 -79 -420 -205 -615 -114 -178 -277 -339 -479 -475 -189
-126 -379 -180 -640 -180 -161 0 -223 10 -346 57 -408 155 -723 429 -894 778
-67 137 -72 151 -90 255 -51 279 -79 622 -70 854 l6 180 42 44 42 45 13 -113
c14 -132 38 -211 89 -295 51 -82 122 -148 206 -189 98 -49 160 -61 311 -60
154 0 235 21 331 84 132 86 203 239 232 501 7 61 8 63 51 86 62 32 169 32 226
0z m-1797 -56 c20 -11 52 -32 70 -48 29 -25 35 -37 46 -110 7 -46 11 -83 8
-83 -2 0 -30 22 -61 48 -74 63 -102 82 -123 82 -10 0 -18 -7 -18 -15 0 -8 7
-15 16 -15 38 0 170 -123 204 -191 l19 -37 -30 -6 c-44 -8 -73 -78 -66 -155 5
-51 46 -196 53 -188 2 1 -4 41 -12 87 -24 136 -4 230 50 230 20 0 25 -7 35
-57 6 -32 20 -102 31 -157 11 -54 25 -149 30 -210 6 -61 16 -140 22 -175 11
-64 10 -65 -16 -88 -61 -52 -157 -19 -238 83 -126 160 -218 349 -237 487 -28
201 10 438 81 514 27 29 84 30 136 4z m3366 -23 c54 -62 76 -162 76 -340 0
-123 -17 -214 -59 -320 -63 -158 -206 -363 -283 -405 -40 -22 -112 -31 -122
-15 -5 9 32 300 55 427 20 109 38 249 33 257 -3 5 2 11 12 15 11 4 23 -1 36
-16 15 -19 18 -41 18 -120 1 -94 1 -95 16 -62 35 81 8 222 -43 229 -13 2 -23
6 -23 9 0 3 14 30 30 59 31 54 133 148 179 165 18 8 21 13 13 21 -15 15 -58
-8 -112 -56 -71 -65 -69 -66 -47 31 10 49 24 94 31 102 23 30 83 60 118 60 31
1 42 -5 72 -41z m-369 -1629 c135 -25 225 -107 428 -387 77 -106 77 -109 24
-204 -159 -285 -535 -644 -852 -813 -38 -20 -74 -41 -80 -45 -11 -8 -32 -20
-250 -140 -190 -104 -242 -136 -299 -183 -27 -23 -44 -32 -38 -21 12 21 147
184 166 199 7 6 27 30 45 54 29 41 116 138 312 345 121 129 151 164 241 283
113 151 172 257 209 378 16 55 34 108 39 117 5 9 7 26 5 37 -2 12 0 21 6 21
23 0 -2 158 -30 185 -82 78 -164 121 -211 110 -24 -6 -24 -6 -5 8 32 23 106
47 170 56 33 5 60 9 61 10 0 0 27 -4 59 -10z m-2263 -166 c50 -42 107 -88 127
-102 230 -158 428 -250 585 -271 405 -55 725 37 1027 295 l54 46 12 -108 c21
-173 67 -430 78 -429 6 1 10 18 9 39 0 20 2 37 5 37 4 0 32 -26 64 -58 l58
-58 -82 -110 c-82 -111 -175 -214 -194 -214 -5 0 -35 -15 -65 -33 -107 -63
-263 -128 -398 -165 l-137 -37 -210 0 c-244 0 -343 14 -525 75 -215 72 -234
83 -393 242 -131 132 -202 217 -256 309 l-21 35 28 27 28 27 -4 -65 c-3 -41
-1 -65 6 -65 13 0 18 16 32 115 7 44 18 105 26 135 29 116 45 264 39 355 -4
65 -3 85 5 73 6 -9 52 -52 102 -95z m-1065 -160 c-3 -10 -5 -4 -5 12 0 17 2
24 5 18 2 -7 2 -21 0 -30z m587 -285 c4 -17 8 -20 14 -10 5 7 16 10 25 6 9 -3
17 -2 17 4 0 14 31 20 65 11 25 -7 37 -21 66 -81 75 -152 190 -282 470 -534
280 -254 669 -670 669 -718 0 -5 -19 8 -42 31 -84 79 -401 313 -513 377 -27
16 -88 55 -135 86 -47 32 -132 86 -190 120 -218 130 -458 310 -607 454 -76 73
-97 100 -74 94 5 -2 33 20 62 48 30 27 62 53 72 57 9 3 17 14 17 24 0 15 2 15
9 4 8 -12 12 -12 25 -2 8 7 18 21 21 32 8 26 21 24 29 -3z m2526 -100 c0 -14
-18 -17 -28 -5 -8 10 -6 13 9 13 10 0 19 -4 19 -8z m-426 -530 c-49 -51 -132
-142 -184 -202 -52 -60 -102 -117 -110 -125 -41 -44 -208 -251 -230 -286 -24
-38 -100 -198 -114 -239 -9 -26 -20 -12 -41 53 -35 108 -267 407 -436 563 -46
42 -124 115 -174 162 l-90 85 80 -30 c263 -102 602 -145 820 -105 209 38 405
110 530 195 17 12 32 21 34 21 3 0 -36 -42 -85 -92z m-3467 66 c-3 -3 -12 -4
-19 -1 -8 3 -5 6 6 6 11 1 17 -2 13 -5z m233 -34 c0 -5 -2 -10 -4 -10 -3 0 -8
5 -11 10 -3 6 -1 10 4 10 6 0 11 -4 11 -10z m-464 -55 c-11 -8 -24 -15 -30
-15 -5 0 -1 7 10 15 10 8 24 14 29 14 6 0 1 -6 -9 -14z m-46 -20 c0 -2 -10 -9
-22 -15 -22 -11 -22 -10 -4 4 21 17 26 19 26 11z m670 -29 c0 -2 -7 -7 -16
-10 -8 -3 -12 -2 -9 4 6 10 25 14 25 6z m-1020 -194 c0 -4 -10 -13 -22 -21
-23 -14 -23 -14 -4 8 20 22 26 25 26 13z m-170 -166 c0 -3 -4 -8 -10 -11 -5
-3 -10 -1 -10 4 0 6 5 11 10 11 6 0 10 -2 10 -4z m2856 -450 c-3 -132 -9 -445
-13 -694 l-6 -453 -41 7 c-23 3 -43 8 -45 10 -14 13 10 1063 29 1244 10 103
34 154 64 138 18 -10 19 -20 12 -252z m1695 257 c13 -102 29 -670 29 -1056 l0
-388 -35 3 -34 3 -5 450 c-3 248 -10 536 -15 640 -9 174 -8 195 9 245 10 30
17 58 14 61 -2 4 3 10 12 13 9 4 14 13 10 21 -3 8 -1 15 4 15 6 0 10 -3 11 -7z
m-1801 -13 c0 -5 -7 -7 -15 -4 -8 4 -15 8 -15 10 0 2 7 4 15 4 8 0 15 -4 15
-10z m1750 -20 c0 -5 -4 -10 -10 -10 -5 0 -10 5 -10 10 0 6 5 10 10 10 6 0 10
-4 10 -10z m-13 -57 c-3 -10 -5 -4 -5 12 0 17 2 24 5 18 2 -7 2 -21 0 -30z
m-1810 11 c-3 -3 -12 -4 -19 -1 -8 3 -5 6 6 6 11 1 17 -2 13 -5z m-30 -50 c-3
-3 -12 -4 -19 -1 -8 3 -5 6 6 6 11 1 17 -2 13 -5z m-2889 -40 c-7 -15 -14 -21
-16 -15 -2 7 2 18 8 26 18 22 21 18 8 -11z m3152 -24 c0 -5 -4 -10 -10 -10 -5
0 -10 5 -10 10 0 6 5 10 10 10 6 0 10 -4 10 -10z m814 -96 c9 -22 7 -427 -2
-440 -18 -26 -82 -27 -82 -1 0 7 13 25 30 40 16 16 32 43 36 64 10 55 -1 260
-16 278 -7 9 -9 22 -5 32 5 10 7 24 6 31 -3 18 26 15 33 -4z m733 -156 c-2
-24 -4 -5 -4 42 0 47 2 66 4 43 2 -24 2 -62 0 -85z m0 -150 c-2 -18 -4 -4 -4
32 0 36 2 50 4 33 2 -18 2 -48 0 -65z m13 -58 c0 -5 -4 -10 -10 -10 -5 0 -10
5 -10 10 0 6 5 10 10 10 6 0 10 -4 10 -10z m-4927 -180 c-3 -12 -8 -19 -11
-16 -5 6 5 36 12 36 2 0 2 -9 -1 -20z m1444 -332 c-3 -8 -6 -5 -6 6 -1 11 2
17 5 13 3 -3 4 -12 1 -19z m3480 -230 c-3 -8 -6 -5 -6 6 -1 11 2 17 5 13 3 -3
4 -12 1 -19z m-1626 -45 c48 -29 57 -103 19 -160 -18 -27 -27 -28 -52 -6 -15
13 -24 14 -53 6 -31 -10 -36 -9 -50 13 -8 13 -15 42 -15 64 0 81 80 125 151
83z m1759 -58 c40 -42 46 -94 16 -139 -16 -26 -19 -26 -35 -12 -20 18 -54 21
-81 6 -15 -8 -23 -5 -39 16 -31 39 -27 86 10 129 43 48 82 48 129 0z m-1786
-177 c14 -115 15 -209 3 -205 -8 2 -13 31 -14 82 -2 43 -7 83 -13 90 -6 7 -6
15 2 23 13 13 3 46 -12 37 -5 -3 -10 -1 -10 4 0 6 9 11 19 11 16 0 21 -9 25
-42z m1766 -19 c0 -5 -7 -9 -15 -9 -8 0 -16 -10 -16 -22 l-2 -23 -4 22 c-2 12
-12 24 -21 26 -12 3 -11 5 5 6 12 0 25 6 28 11 7 12 25 4 25 -11z m-11 -205
c-8 -10 -26 -14 -48 -12 -34 3 -36 5 -35 40 1 27 12 50 43 89 22 28 42 57 43
63 1 6 4 -29 5 -77 3 -59 0 -94 -8 -103z m-3788 113 c-10 -9 -11 -8 -5 6 3 10
9 15 12 12 3 -3 0 -11 -7 -18z m13 -52 c3 -8 1 -15 -4 -15 -6 0 -10 7 -10 15
0 8 2 15 4 15 2 0 6 -7 10 -15z m109 -53 c-3 -23 -9 -42 -13 -42 -4 0 -4 17 1
38 5 20 9 41 9 46 0 5 2 7 4 5 3 -2 2 -23 -1 -47z m44 -54 c-3 -7 -5 -2 -5 12
0 14 2 19 5 13 2 -7 2 -19 0 -25z m-1653 6 c3 -8 2 -12 -4 -9 -6 3 -10 10 -10
16 0 14 7 11 14 -7z m1526 12 c0 -3 -4 -8 -10 -11 -5 -3 -10 -1 -10 4 0 6 5
11 10 11 6 0 10 -2 10 -4z m60 -115 c0 -6 -4 -13 -10 -16 -5 -3 -10 1 -10 9 0
9 5 16 10 16 6 0 10 -4 10 -9z m-1636 -95 c-3 -15 -8 -25 -11 -23 -2 3 -1 17
3 31 3 15 8 25 11 23 2 -3 1 -17 -3 -31z m1296 -101 c14 -19 14 -19 -2 -6 -10
7 -18 18 -18 24 0 6 1 8 3 6 1 -2 9 -13 17 -24z m267 -252 c-3 -10 -5 -4 -5
12 0 17 2 24 5 18 2 -7 2 -21 0 -30z m57 -128 c-4 -8 -8 -15 -10 -15 -2 0 -4
7 -4 15 0 8 4 15 10 15 5 0 7 -7 4 -15z m-67 -67 c-3 -8 -6 -5 -6 6 -1 11 2
17 5 13 3 -3 4 -12 1 -19z m54 -45 c-12 -20 -14 -14 -5 12 4 9 9 14 11 11 3
-2 0 -13 -6 -23z m-54 -40 c-3 -10 -5 -2 -5 17 0 19 2 27 5 18 2 -10 2 -26 0
-35z m-40 -105 c-3 -8 -6 -5 -6 6 -1 11 2 17 5 13 3 -3 4 -12 1 -19z m30 -110
c-2 -13 -4 -3 -4 22 0 25 2 35 4 23 2 -13 2 -33 0 -45z m-1730 -70 c-3 -8 -6
-5 -6 6 -1 11 2 17 5 13 3 -3 4 -12 1 -19z m-20 -190 c-3 -7 -5 -2 -5 12 0 14
2 19 5 13 2 -7 2 -19 0 -25z m-10 -160 c-2 -18 -4 -4 -4 32 0 36 2 50 4 33 2
-18 2 -48 0 -65z m1800 -20 c-3 -7 -5 -2 -5 12 0 14 2 19 5 13 2 -7 2 -19 0
-25z m0 -65 c-3 -10 -5 -2 -5 17 0 19 2 27 5 18 2 -10 2 -26 0 -35z m-1793
-11 c2 -18 -1 -32 -5 -32 -5 0 -9 17 -9 37 0 43 8 40 14 -5z"/>
    <path d="M4255 7709 c-122 -18 -209 -56 -274 -121 -49 -48 -146 -187 -137
-195 3 -3 32 6 64 20 207 89 546 124 737 76 44 -11 90 -23 103 -26 31 -8 29
22 -6 78 -54 84 -128 133 -237 157 -74 16 -182 21 -250 11z"/>
    <path d="M5845 7713 c-163 -10 -266 -49 -327 -126 -44 -57 -72 -112 -63 -127
8 -13 48 -13 61 -1 15 16 208 51 278 51 169 0 471 -64 554 -118 38 -25 37 -5
-3 60 -54 89 -120 164 -168 192 -74 43 -228 75 -332 69z"/>
    <path d="M5690 7257 c-19 -8 -47 -19 -61 -25 -34 -14 -84 -72 -99 -116 -20
-61 -6 -63 28 -4 34 61 69 91 133 113 65 23 76 18 30 -15 -57 -42 -81 -84 -81
-144 0 -95 76 -176 164 -176 94 0 157 61 163 158 6 94 -45 161 -144 188 -46
12 -47 13 -13 13 46 1 194 -25 219 -38 24 -13 79 -122 88 -173 6 -39 18 -45
36 -17 7 11 -2 39 -33 100 -50 101 -59 112 -108 128 -58 19 -280 24 -322 8z
m193 -109 c34 -18 46 -40 47 -85 0 -31 -6 -48 -22 -63 -42 -39 -72 -17 -39 29
29 40 26 66 -9 91 -16 12 -30 26 -30 31 0 13 27 11 53 -3z m-169 -74 c10 -26
7 -56 -6 -52 -18 6 -32 34 -25 52 8 20 23 21 31 0z"/>
    <path d="M4250 7259 c-36 -5 -75 -14 -87 -20 -22 -12 -113 -177 -113 -205 0
-13 60 -46 69 -38 2 2 -4 13 -13 23 -16 17 -16 25 -6 58 7 21 28 61 46 90 30
47 37 52 86 63 29 6 94 13 143 15 85 4 86 4 31 -5 -111 -18 -172 -87 -164
-185 12 -139 145 -209 259 -136 57 35 84 97 77 173 -6 55 -28 92 -78 126 -39
26 -38 26 26 7 30 -9 62 -27 80 -47 35 -38 74 -102 74 -124 0 -8 5 -14 10 -14
6 0 8 11 4 28 -41 170 -171 226 -444 191z m269 -125 c43 -55 10 -144 -54 -144
-33 0 -32 16 5 47 17 13 30 33 30 42 0 21 -26 46 -58 56 -31 9 -17 25 23 25
24 0 39 -7 54 -26z m-203 -81 c-7 -17 -8 -17 -21 1 -11 14 -12 24 -3 40 l11
21 10 -22 c5 -12 6 -30 3 -40z"/>
    <path d="M4832 6520 c-29 -32 -55 -120 -34 -120 4 0 13 19 20 43 8 23 20 50
29 59 8 9 13 22 11 29 -3 8 -12 4 -26 -11z"/>
    <path d="M5360 6531 c0 -5 11 -22 24 -38 14 -16 28 -41 31 -56 4 -15 12 -27
17 -27 12 0 1 58 -18 87 -16 25 -54 49 -54 34z"/>
    <path d="M4842 6313 c16 -20 75 -27 108 -13 17 7 30 15 30 19 0 4 -33 7 -74 6
-57 0 -72 -3 -64 -12z"/>
    <path d="M5258 6319 c-16 -10 26 -29 66 -29 39 0 66 8 66 20 0 10 -118 18
-132 9z"/>
    <path d="M5685 5925 c-75 -44 -195 -81 -305 -95 -109 -13 -431 -13 -540 0
-145 18 -331 70 -385 106 -11 8 -27 14 -36 14 -20 0 -34 -29 -16 -34 13 -3 49
-16 148 -51 138 -50 248 -66 497 -72 330 -8 477 14 643 98 67 33 79 42 69 55
-7 7 -13 14 -14 14 0 0 -28 -16 -61 -35z"/>
    <path d="M5228 5579 c-23 -13 -159 -16 -222 -6 -38 7 -47 6 -44 -5 15 -45 261
-51 289 -6 18 28 8 35 -23 17z"/>
    <path d="M4866 3750 c6 -6 48 -18 95 -26 99 -19 274 -15 329 8 33 14 23 15
-140 14 -96 -1 -202 3 -235 7 -42 5 -57 5 -49 -3z"/>
    <path d="M8338 3460 c-4 -14 -21 -122 -38 -240 -56 -385 -79 -533 -110 -695
-60 -309 -136 -635 -149 -635 -3 0 -7 24 -7 53 -1 94 -13 429 -20 564 -6 120
-15 166 -28 152 -15 -15 -27 -375 -31 -982 -2 -379 -7 -703 -10 -720 -3 -18
-14 -230 -25 -472 -12 -242 -23 -450 -27 -462 l-5 -23 185 0 185 0 -5 23 c-3
12 -10 27 -14 33 -5 6 -7 13 -4 16 3 2 -2 27 -10 54 -25 84 -46 234 -51 359
-3 66 -7 127 -10 135 -9 25 -10 138 -1 133 5 -3 4 5 -3 17 -7 13 -13 46 -13
73 -1 41 -3 46 -10 29 -6 -12 -14 -22 -20 -22 -6 0 -6 5 0 13 21 29 153 401
203 572 69 239 139 609 119 630 -5 5 -9 1 -9 -12 0 -12 -5 -25 -11 -29 -14 -8
-2 35 16 56 27 32 23 150 -5 150 -14 0 -58 -80 -101 -187 -22 -54 -48 -116
-58 -138 -10 -22 -22 -51 -26 -65 -4 -14 -11 -27 -14 -30 -3 -3 -28 -48 -54
-100 -80 -159 -93 -178 -110 -161 -4 4 -10 35 -13 67 -2 32 -9 61 -14 62 -6 2
-10 13 -9 25 0 21 1 21 10 2 7 -16 8 -14 4 10 -4 19 11 87 39 186 38 135 59
221 106 449 39 186 111 634 146 907 15 121 17 255 2 203z m-341 -1312 c-3 -7
-5 -2 -5 12 0 14 2 19 5 13 2 -7 2 -19 0 -25z m0 -180 c-3 -8 -6 -5 -6 6 -1
11 2 17 5 13 3 -3 4 -12 1 -19z m0 -920 c-3 -7 -5 -2 -5 12 0 14 2 19 5 13 2
-7 2 -19 0 -25z m133 -68 c0 -5 -4 -10 -10 -10 -5 0 -10 5 -10 10 0 6 5 10 10
10 6 0 10 -4 10 -10z m-67 -155 c-3 -9 -8 -14 -10 -11 -3 3 -2 9 2 15 9 16 15
13 8 -4z m-13 -33 c0 -5 -7 -17 -15 -28 -14 -18 -14 -17 -4 9 12 27 19 34 19
19z m-73 -34 c-3 -7 -5 -2 -5 12 0 14 2 19 5 13 2 -7 2 -19 0 -25z m-20 -460
c-3 -8 -6 -5 -6 6 -1 11 2 17 5 13 3 -3 4 -12 1 -19z"/>
    <path d="M4197 2596 c-4 -10 -6 -41 -6 -69 l1 -52 9 60 c9 63 7 91 -4 61z"/>
  </g>
</svg>
